<mxfile host="65bd71144e">
    <diagram id="qDD-dnx2YubhPzbGjKXQ" name="Page-1">
        <mxGraphModel dx="891" dy="840" grid="1" gridSize="10" guides="1" tooltips="1" connect="1" arrows="1" fold="1" page="1" pageScale="1" pageWidth="800" pageHeight="400" math="0" shadow="0">
            <root>
                <mxCell id="0"/>
                <mxCell id="1" parent="0"/>
                <mxCell id="10" value="&quot;CLASSICAL OOP&quot;: CLASSES" style="swimlane;whiteSpace=wrap;html=1;" vertex="1" parent="1">
                    <mxGeometry width="270" height="400" as="geometry"/>
                </mxCell>
                <mxCell id="13" value="Class" style="rounded=0;whiteSpace=wrap;html=1;fillColor=#141D0F;" vertex="1" parent="10">
                    <mxGeometry x="75" y="40" width="120" height="30" as="geometry"/>
                </mxCell>
                <mxCell id="14" value="Instance" style="rounded=0;whiteSpace=wrap;html=1;" vertex="1" parent="10">
                    <mxGeometry x="75" y="135" width="120" height="30" as="geometry"/>
                </mxCell>
                <mxCell id="16" value="" style="shape=flexArrow;endArrow=classic;html=1;endWidth=10.588235294117647;endSize=6.647058823529412;" edge="1" parent="10">
                    <mxGeometry width="50" height="50" relative="1" as="geometry">
                        <mxPoint x="89" y="75" as="sourcePoint"/>
                        <mxPoint x="89" y="135" as="targetPoint"/>
                    </mxGeometry>
                </mxCell>
                <mxCell id="17" value="INSTANTIATION" style="text;strokeColor=none;fillColor=none;align=left;verticalAlign=middle;spacingLeft=4;spacingRight=4;overflow=hidden;points=[[0,0.5],[1,0.5]];portConstraint=eastwest;rotatable=0;whiteSpace=wrap;html=1;" vertex="1" parent="10">
                    <mxGeometry x="120" y="90" width="110" height="30" as="geometry"/>
                </mxCell>
                <mxCell id="18" value="Objects (instances) are &lt;b&gt;instantiated &lt;/b&gt;from a class, which functions like a blueprint;" style="text;html=1;strokeColor=none;fillColor=none;align=left;verticalAlign=middle;whiteSpace=wrap;rounded=0;" vertex="1" parent="10">
                    <mxGeometry x="20" y="190" width="240" height="54" as="geometry"/>
                </mxCell>
                <mxCell id="19" value="Behaviours (methods) are &lt;b&gt;copied &lt;/b&gt;from class to all instances." style="text;html=1;strokeColor=none;fillColor=none;align=left;verticalAlign=middle;whiteSpace=wrap;rounded=0;" vertex="1" parent="10">
                    <mxGeometry x="20" y="250" width="220" height="30" as="geometry"/>
                </mxCell>
                <mxCell id="11" value="OOP IN JAVASCRIPT" style="swimlane;whiteSpace=wrap;html=1;" vertex="1" parent="1">
                    <mxGeometry x="270" width="270" height="400" as="geometry"/>
                </mxCell>
                <mxCell id="20" value="Prototype" style="rounded=0;whiteSpace=wrap;html=1;fillColor=#141D0F;" vertex="1" parent="11">
                    <mxGeometry x="30" y="41.25" width="120" height="30" as="geometry"/>
                </mxCell>
                <mxCell id="21" value="Instance" style="rounded=0;whiteSpace=wrap;html=1;" vertex="1" parent="11">
                    <mxGeometry x="30" y="136.25" width="120" height="30" as="geometry"/>
                </mxCell>
                <mxCell id="23" value="PROTOTYPAL INHERITANCE/ DELEGATION" style="text;strokeColor=none;fillColor=none;align=left;verticalAlign=middle;spacingLeft=4;spacingRight=4;overflow=hidden;points=[[0,0.5],[1,0.5]];portConstraint=eastwest;rotatable=0;whiteSpace=wrap;html=1;" vertex="1" parent="11">
                    <mxGeometry x="70" y="68.75" width="180" height="67.5" as="geometry"/>
                </mxCell>
                <mxCell id="24" value="Objects are &lt;b&gt;linked &lt;/b&gt;to a prototype object" style="text;html=1;strokeColor=none;fillColor=none;align=left;verticalAlign=middle;whiteSpace=wrap;rounded=0;" vertex="1" parent="11">
                    <mxGeometry x="20" y="200" width="230" height="30" as="geometry"/>
                </mxCell>
                <mxCell id="22" value="" style="shape=flexArrow;endArrow=classic;html=1;endWidth=10.588235294117647;endSize=6.647058823529412;" edge="1" parent="11">
                    <mxGeometry width="50" height="50" relative="1" as="geometry">
                        <mxPoint x="50" y="130" as="sourcePoint"/>
                        <mxPoint x="50" y="75" as="targetPoint"/>
                    </mxGeometry>
                </mxCell>
                <mxCell id="26" value="&lt;b&gt;Prototypal inheritance: &lt;/b&gt;The prototype contains methods (behaviour) that are accessible to all object linked to that prototype;&lt;b&gt;&amp;nbsp;&lt;/b&gt;" style="text;html=1;strokeColor=none;fillColor=none;align=left;verticalAlign=middle;whiteSpace=wrap;rounded=0;" vertex="1" parent="11">
                    <mxGeometry x="20" y="250" width="250" height="60" as="geometry"/>
                </mxCell>
                <mxCell id="28" value="Behaviour is &lt;b&gt;delegated &lt;/b&gt;to the linked prototype object" style="text;html=1;strokeColor=none;fillColor=none;align=left;verticalAlign=middle;whiteSpace=wrap;rounded=0;" vertex="1" parent="11">
                    <mxGeometry x="20" y="330" width="230" height="30" as="geometry"/>
                </mxCell>
                <mxCell id="12" value="EXAMPLE: ARRAYS" style="swimlane;whiteSpace=wrap;html=1;" vertex="1" parent="1">
                    <mxGeometry x="540" width="260" height="400" as="geometry"/>
                </mxCell>
                <mxCell id="29" value="" style="shape=image;verticalLabelPosition=bottom;labelBackgroundColor=default;verticalAlign=top;aspect=fixed;imageAspect=0;image=data:image/png,iVBORw0KGgoAAAANSUhEUgAAAV0AAAC3CAYAAACxII3nAAAAAXNSR0IArs4c6QAAAARnQU1BAACxjwv8YQUAAAAJcEhZcwAADsMAAA7DAcdvqGQAAABhaVRYdFNuaXBNZXRhZGF0YQAAAAAAeyJjbGlwUG9pbnRzIjpbeyJ4IjowLCJ5IjowfSx7IngiOjM0OSwieSI6MH0seyJ4IjozNDksInkiOjE4M30seyJ4IjowLCJ5IjoxODN9XX1bbRa/AAA0/UlEQVR4Xu3dCVxU5f4/8A/bsAz7IsMOAoq4IKJiikvuSxq5lKX3+kuzvN3Kyuu9Xr23zHuz/pl20+qapWZpVpqJabkk1wUXVERSERVkZ1D2TWDY/s9zzhkYEJRFjojf9+t1mJlnnjnMnJn5nu95zpnz1fPxG1IDQgghstCXLgkhhMiAgi4hhMiIgi4hhMiIgi4hhMiIgi4hhMiIgi4hhMiIgi4hhMiIgi4hhMiIgi4hhMiIgi4hhMiIgi4hhMiIgi4hhMiIgi4hhMiIgi4hhMiIgi4hhMiIzqdL7h/nF9C7l5N0Q1Iah2vHd6Bcutl5PA63sSGwlm6JCqA+tRbZRdJNQhpBmS65fyycoHJ3rz85O8FQurtzsYdtw9fq7gNLE+luQppAma4OT++3MMCuANd+/xgxZVIjab7u/8SYoe64dXw+Yq5KbQ0Z6eNlP1tMGWgHbzu+zi/Cjg/SsFS8t+X0DLBkqBNmBJnD0kgPqKlBYVY+ju7NxJvZUp8Wmt3THrMH2cLb1oDNnzVUVqEwKRMf/VSIrU18W5SPrcXgnkBC2Gu4kSU1EtIIynRr9UPXrh7wcbNCBQXcdrPyqe54Y4IDC2g8QEqNrWaMr+d3w7xBFrDU0yAtvhAJWdWw7GKDybOcsIQHzBaa8Zgn3p4kPr9CNZtffDEKYQBLHxcsecJU6kVI61HQreULO0t2UZiDm2IDaQdpLA38eWc8/vhhIk4VSo2tVo6jV0qQFp2IJ9fcwOO70jH+q2v47GIFi8fWGOEvdWuBHadS8NGeRLz54VUEbWXz25WKoM/V4MmrsY0JxordCGk1mYYXLOHo/gom9fSGo1JsqSzJxuULX+EX9RWxQWJu/2dMDugNTxsj4XZlXjLCT3+IqJLbwm3OM2A9nvXNwC9hp+EYPBkBjmbCuGHBjb34OvonFIvdGDNYdXkeE3v3hqu1EQy1mU9lBQrid+GzSwcB27/gjZE90NRQXPGVr7Du8nHpVnNMx9wXFmAAorE1wgKTx/rAij+5kkyc/W0dNiVEit20/SyTsWfNPPwqtXZ/fDdeDzTHjUOjseoib1mExW9OgN2laGR6B6K7iQZXf9uD7KDpGGLLXvOVnXjv1/UoEB7dHDMxZPsr8OcrmCYURX6C71Z8J91qgeYML9RiWepLXfGYVRuHFxoT4Irr4yxQGHUDQYfbvgvP1dkBYbPtgTNsfkcanx8NL5DmkiHT9YZ/0LuYO5AFXONCpKckIz6TpThm9ggY8iJGmkvdGHPntzB/RD94WlbgZkYyknIrYGjjgbHDXoan1AfoAXchICsRMPAZBJjlIyk1Wwi0Vt7DMFBnfnY+b+PlYWx+FhXIUbP/y/83m9KLgJs5EWKnmkKk8fZsMagXZ9f141OMOkpobzHLnpg61AfISsZVdTEqzFQYMOVVTDGW7m8hK19PlEaxwFupQPfRo2AVy66zhM6qxwAMlvo0Tw6yryUh5XrTU0ZajtT34fSYsbh2zcpuS8DVwwgrE6wc5YqwmXbAlVQsaiLgEtIS7R90HZ/BOC8zlKWF47OwN/D1mRXYEfEGVh2KRGzMzzimTUv1nsK4AR4wKU/GL3tfxaaTK7A9fBWO3WL3KT3QzULsxoO4gxW/tIdVyff46OA/sePM33AsnbcZ1mWz6IcAL5adIAMHw8T57eD/m01fH16AH9VS5py3QWg7JowpVCDjSl0/oT23LsNuGQUyIxZgyfZ5+M/2UKw6m8deowrdu0l3t1TmaXx+JhKppex6WjQ2nFmMMxniXS1zCFffno0Drzc9Hdt0SOr7MNLDDB++5i1FapLY0hpLpnTDFy95YUaQBYwLinA+rhTx0n2EtEU7B11nBPt4s033QkT9vg0FugMZhRsQdj0cldJNOPVGN5bA5sTtRgzL4EQJiM9qEPRMnGHHE92KBByOOSg93gyGwiu5jbLax2ZCHJFwxrDH38JYt7GwMzQT7rmTGVxt+H0FyGr+dvo9JOPSlbqvaWpBmwcw61SXs9UDaYyrnwpjXYHy+GxsasN7+f6eq/D9IA7zv01DbIU5Rjzlix8GGUj3EtJ67Rx0h8JdxS6KknD1Hgmjo5UD+3sbSTd/FxskVmbi2G4tK5bhsovKtN8RWxvEQ+DIj1K/nYWU2iMPMhB5egMOJmSj0soDQcHP4MXQdVg8ain8TRoG3yBxJ1pFATI7/ZELfEw3AvP3NT3NfGum1Pfh4mpvjW/GWcO4vAh7DhTjlNTeejU4klaEp79JQWypHhwG2OMN6R5CWqvdhxeEzf2CzHseEaCykgJhvd16faCyZkG3Qo0k6Vc+VhZWwk6ztFvhYgNn6Ax7/vDCbJbf6qiKRFT037DupzfwWXg4otJuw9DGG08Omi0E7jose+ZbpDkZSBEbOrHOOabr726PH553gitKcGRHGpaWSHfcDzUa3OJJg6kReGpASFu0e9Ct5EHU1g0+usdM6jnDxZFt7ks3uYJSvsFsBpWdt9jAmDuHIsgGKGNZ7TWpzdGKh8vbyMnXSZ0t7YV5lRVloPFEtRAFudtwMPJnxPKHmVmCzfYBS0CBEBgsYVabeE/AAA+dPYHtopON6fIfR4zzQthMBzgU5mHrVymY36qx7qa5Otugny27UlKBNLGJkFZr56B7HJdTWTA164EZkz7CswPfwoyQj7A49F/449CpCOH7uSRJmSlCwHQJWowXB7+FZ0esw6uDxR1r4b/vFTuhB1QWfLghCzd1ft9uYukgHPKVmSsdkcB0C1qPv4euxxuj/oUZ/P8O/BdefOIZ+LMAV5AYifr7WLLEAKgaivkjxP5/HLUeL/r1E+9uF9E4k5LHLm0wes4OLH1yI5a+8Crsc8VcXdV3LaY5BQrXOw8DrBzngv1T+dQFPYWVjQlGCLdd8EPvRsZMR36MmXzYY9Mq1O5L1bHyqW6YF8De/UoWEHMM8Ngo7fz5ZIOXpX51lmASn99Pm3SOiNHR0wXX3+iKk09L8/g/H/xvlgMs9aqREJGFz6RuhLRWOwfdDMSe3YCDSYWoNLKEp7sHfOxNUZB1BQcPrkCY7s80b/4HX0cmo6DKCHbOHsJxujlJ4dj0ywqdHWt94MhT2qKCesMIKm32W6DNfnvAFKUoqzSCiY0zfPj/dXeGlSYbsWc2YMOVhsfdhuPgyfNIZ4HX3F7s72hYgJuFtbv52kXqyf/ix7hiVJjYwK2rBywzfsU3ieJhSWYO/hjgV5f1dw6GcPW0hLcPn/jPdnkb22QXbrOpSyNnaehiwbZ/gKq8ZDR6HhntQwyN4NpVO2/tpISrdHetQDthfsjLQaODKEUaFLLPjYP2eToYojy3CEd+iscLMdVSJ0Jaj869QO4f6ccR1RUVqKiS2orO42zYl2wV2EoLdmD+ZCfkH30HOz64D8MeYz7GrNeDYBz3HTYt+kRqbI1Q+M0eiy7SLRgZwdiglH4cQe6p3cd0ySOEbeKXl+kE3PvAjmW6gAY3r92ncWZPMdPNTmr7sQ31sBVNeVkJKtp344h0ApTpkg7Nc3UExvipEfnyDPyeLDW2gcVf92DmcHNc/WIkju2WGgmREWW6pEMzqNKgPDsD2fch4HIGKGcZKZtftNRAiMwo0yWEEBlRpksIITKioEsIITKioEsIITKioEsIITKioNuR6DnB1G0GVD2fg9VdKjuQjqA3rNj7pOo2FqYKqp1Gmo+OXugQTGHssxBBw72hlE4M1LySN+TBmYGAF+p+kVZ0dQeijh+k8xyTe6Kg2wHo+/wTw0a4w6imFOnn9iLxRgoqy+L4j5w6Br3pmPlcKKxOr8PntTXeOq/Jvrb48zAHqUQ8U1KK2JPp+HO07lnGLGFk4QwTp7HoGtQbXZRAxY3dOBK+T7qfkMbR8MKDpjcWPsE84BYi4ee/ITbmIEqLOlDAlRgaqdB3yt8x181Haumc5o3wwpqnHMUS7BnsPUkqRbmZKfzHdMWnflInQSEq2PtUdG0tYr7bghtFgFHXcejmLN1NSBMo6D5oXfvB2RQov3EAN261+rQw7atmJ7ZuWY+zBeYYMP1DzHXi5UA6mjkI3hKOP365CryISGsduJaPtMxsfPSfOLEE+w9JGL8jF+Xsq+Lv38S5jmsikHAuARUwhbPfJKmRkMa1+/DCjH8fxDj3FIR/mYkezw2EEz/bSHUJUg5vxoff7IH2ZIzBb/yE+YFKpOwfixXfSo1DPsDal/rCLGU/XvjHGqFJmJ9NLM5n+6CflwIVifuxOzcYM/jZzotisfu917G3BWeatpyyG+N75eDSBUv06MvmURCJI9EqDBnBz+WbifO7ZiM+UerstQrjnw1kG5ZMtQZlRWpcPbENVy/oVLHAdPgvXIBeiMbhI8boO8YfdgrWXFmMxBObcfZEmNhNYjXsMwzsBiT/+jKuCcU1G/Dpgt3zHGGuTsXitflsrlp6WP56L4Q4liLy03gsa/Zr1pZ+l242oayQn6dYutFQTTHOfrcAm9T16nTck9lzX2LteHfcvvQVXvtA+yZz/4dFG55DD4N47H31ZezWOT9980ml5RGFXc8ubPy0ja1mgf1/dYV3QRbe/zwbG6XW+ibBf04oXDQXcXL7WjRWuMJuyR5MHWqL/OOfYMf7rShxTzoFmTJdFQaxgGt1OwUpaXks0CrhPuZF/GmUdHdLWfjAveQMfr/JNum8xmOs+WXhOiz80W+Y2KVlPOBldw3nE4thYBWMId1zcZFdh7EKPr2nS30YoxLkJCcjhU3peRroW3ggYOJfMGRwsNRBh9IXg0b4wyiP9VfnoczQHF7DX8KggbonJjeFqTk/qWw225QVW+4Qn4vL/FznTtaYoFtjyMoaPo7sMicPh1tUziBXeP5XE+4+qW9lN9rOp8xilvHOXIfZLcx4b+++gAR+TvuuAzFSahOM7wsfE6AiJaaFAdcJ3qv3Y8YH78K5TzHK+YZCthr5/ecj8D/7MWv1m2K3tjI2gFA5P6+8iYDLnUcBf5+UVuzT3ThrFS8/wS8bPX06eUTIFHRZRnrlEyx58wWsWPoMlvwczzbFFPDoM026v6UyEfXBCkRm8HyCXf9oBdZGt6W6GctCI5YhMZnnR8W4EbEYiaev4476vdeW4+y2eTjNphOfh2L35+FIr1TApd/0Rr5o5ii8uAz7N7L+m2dgT1gsy34UcA+aLlS5EPWBmVAOoQLVTW5vVCIinkcTC/joxOvAQVZsVcZC6NUC6ObZ9xaO3w7Nw3/C7j59sGdmo+18emfbTlwqssGQqcsxRJprs9zeiSv8bTLzQC+dB47s4wO+6km58LnY0GxjYW+vgHXP4Zj03hIE8gJmnk9g7jtz0N/XHMb2HuDrpbZ6rLeFcDL0LG3Z/kap7zkOn/DvNTj08y7s+vf7Ugt5FMkUdEuQfK5uKOF2ZvF9PLRGg4pWbY42rfpu50RVhsA6aCnch7OpT7mY3VjaNjKOmInkYzp7+i8fQzJfR9ioWlyf7ddTeSw/Bdz9LYVAy4cWJnTn0boIscfkP4GrnfcAdLdkq4rM64iT2ponE7sv8BWuEj4DtSvc5xDYVQGUxeJ8/ZGXZtiCyDkj8cWC93EgMhdV/NPMppzI7/DdnBBsmrPwngVR70lPiSVDzIHyQhw508YTBWfvQtL6NcjRrZhCHjkyBd3OQAXLSTswbeFyjB03EoOG8GkC/JssD1uOqnrx8AIKpdS5bqGniJvE96IuwHWehLvZYBYvT2PIsl4ndnmzAGEFvENL8DHd3/DfN+8+fXSXPv8e4wGkR+A/u1a3fOw0LAYpfIjBJxjCoMyQvvAwYwE88QIOCB1awW8MggfYwiAvCbzsnF3gWHQP5AuojfSM8OmzrvA3rkbCETWWipWUmmAKfd3iq4Q0gYJuc/VYiqEBNqi6GYH9H8/GDytHC9OJxnZ+CYxhUK/kV1+YSzum6iptqVFazHN+B1jU1n1pTCV2XuYVwpTwHcjCf4gN3NmtzCu6O9aaq/VjuqnSSqPiZiQ2/LAcN1q1C/ZznI/XABYeCAoEggf6woxtrcSf+Uq6v4V6LsGkl4Ngra9G5L9n48CmKBQpbBH48ip4tyXuGpng67neGOsKZJ1KakZ9tKF8g4dl7LfZ6paQpnWYoJtSIJYdNDNjUUXSJ9BDLCLYVvZT4bngTdjpVB9uMRulMG6bdWU5CkukvfaGr8K5yUFDFTyG6exg8w2GO59BXib4iIRWfjZPVU3h4NFbbGhC9ElejNMAPj0sMMufR+8ixJ5uTdRr3ZjuhvO5sOQjGrnR2PDtMlxqwzEvB6L5EANbcQx6CcE+bKHcjkf0YenOlrq8Bcd2X8LV3WvwOx/rCF+IPbujELv1UySoxS4tNdnXESdf98JjthrE7ovH08fL71163bk3uvDB+pwUtHjjgzxSOkzQVUengA912Q97C6tXfom33v8Jf7LLYbkgbwzGornT0NrExfsfb2LM5KmY+o8lUksr5JUIhwG5DNwK/9FL4T5uPUYtnACzgmLW6gS/p96Fk7fukQnFUPq/i/HzNmLQ8zswZZp4qFl6zE6h1LxWddxFZLMAZtEjFF3u9hP+gnzE8oXh6YJRfEGk5mKTXN9ui+VYPD0QVgXR+HTL4jYFXMH+M4i/zd7WgMnwYYH89tXjLdwZqEuNoi0LcOyLuppnt79YiBM/trIGWk8XrHnKFg56NSi8WQ7j7ip8WVvS3QWf8k2MO3hD1debrTorkH5tr9R2J7u39mP+vgjM+OsYqYU8ijrO8EL0J9jyczwKqhWwcnVnWaEaB7byjIgxs0GPIJYpCh1bLj+T74bil0nCZatcWYkjR5NRqFCh18CRGBSggub6Hpy6yEc1FbDrEYyAnrol03MQeyASJdYecHeygUl1MdLPbMbpkw0GBDTf4tpFtt2ucEfA5EWwtWzy4Fj8epVtDRgaQWHItgxiC1nmK5Oi9fj85534dPN9CLiCbxF9Q8PeVwXbkilB/JkfpfYOwFA7MKsHS5VuOXdpargX1IhluCMXorezEVsxn0dCQtOD9BZW4o8r8lPuU5FN8lCicy/cd9KPI5TJOLFyHpoc8q3HG/bsixvYVUx1eQnz9IiXEZcg3CQdkliC3cXESMxcShIQvft9ZDcZc53g/9kODPHIRfQ/puAc1Wh7ZNGOtA4hAdnhf8PhPQdZpqRGyX0sYU7aUyWK0hOQcGwLDn93t4DLDYcNz5LLMpBBAfeRRkG3wyhF9a0duPG/t3B6K2W5Hd9uxG19DWd+fR83rkXc5cctWvYw4zva8nLu80+UycOGgi4hslCgqlqD/JRrdEjZI47GdAkhREaU6RJCiIwo6BJCiIwo6BJCiIwo6BJCiIwo6BJCiIwo6BJCiIwo6BJCiIwo6BJCiIwo6BJCiIwo6BJCiIwo6BJCiIwo6BJCiIwo6BJCiIwo6BJCiIwo6BJCiIwo6BJCiIwo6BJCiIwo6BJCiIwo6BJCiIwo6BJCiIwo6BJCiIwo6BJCiIwo6BJCiIwo6BJCiIwo6BJCiIwo6BJCiIwo6BJCiIwo6BLSQembhsC253NQ+YTU+6LqdwmFirXbqtzpC/wQ0vPxG1IjXSeEdARGj8Nj4gx0czASbxddxMnv16JEvAXlY2sxuKepeKNMjdh97yE9r1S8TTo8+YLurPehGOEiXK367SVUfX9buE7utzFw/tsceOISov/f+7gfX0Wbl7eih0syrixbhjyp7WHjMuc3DHEpxqXtoYhNlBo7pGB0ffoFeFsC5VlxiIvch4KiApSXqKX7GYU3jM29YR8wDr6so1FNNuJ+/DtS86X7SYcm09aJGfS8WcAtv43qCsCg6xipndx/drDx9oSHtxOkPKnNlO5sfl09oJRuk/Zj1CdUCLgV6QdxKmw1bmXG1Q+4nCYB5bkHkf6/RThxUo0KPXv4hTxHQw0PCZnepzHQV7GL9EOoymSXLv7QE9oJIXV6w7mbPbvMxvUjO8Dyk3uqiN2BRJ7hqnrDxUJsIx2bPMMLo/8Oo2f8UR3+EqqM/g3FUCUqN76E6tPS/YzeW9/AyE28Xh39MSrTJ8Jwoi/02WqhpjQJVZvfY+23m92P03vlcxgFmAnXayoqUHMrBlXffYGaOO3QxmgYrJ0DA8PrqFi0gj1eauak56x3Yyc074VJjc0xEz03vII+iMKhn40ROKMX7HnKWV2MhEMbcOarXWI3LMHQ7U/AVbhejN8/fgd5495GiJ85DFhLSfJRHF6xDCXSUzUY/DaC/jgcnlYK4X5NQRLObVyM5LNSFhTyMSb9OQgsSWpcURT2vbgQhdJN2E2Fx5svor+nORRs2VVVFCMpvKnn15gkHH92NtIwB4Eb58PP6BqOLpiLDN1Ro4nrEfqHXjCI/w4//vMT1tDcZcM5wXQmWx5jWB/xLURJRhQiN72Pm5cbZH7N0PjwwiIMWToBLiXR2P/x4rplYzwLPjNnoJeTtGw0xUg5uxnnj4ahit9vuRRDXxkJp4JI7Pl0GcqEB4kMRm7FtEEq5JxbicMHw8VG4yfhHjob/m42sFSITYKG/1fBluUfQ2B/KwKH92xBtdR8L8ZB72FYoD1unXwNMbE0ttvRyZLp6vl5ssw2CzUx7Bt5Lp59mMyg39tfuldUk84CZhLrw67rmY6AwThPQM3a8irYbU8YPjWjRf24muJ01pf3T0dNOevv0h9Gr/0del2lDvgN1ZcL2DYdC9pTxfFmLfE5V6DqYksCrg6L7hg8uRcUWUlITs1Fqb45vMe9gsHPBUkd1Mi8we7L0rDrCihC5uMxTw3UrC2bfYuVHsPRf6bUN2gVRr46Bt4s4JZksMdkFMPAyhOD31wLbx+xCwrUSOXzu6EGWxQsBSpGhnBbmhLYZqjYk3kCvm+/icFdWYBnm678MSUG/Pm9ieHzH5P6SM+PTdlCINUgW3d+N5KlHTtbEPd7LluG3eCrfb4SS39P8N09qed5wNVxz2XDgtdzqzDxSRZwTaTXwV6ziXMQRr75dm0QbjNfFaz5ZW5mXeDDdPjPfx79XMxRXZCMlORk5NeYw2vIqxg8MljsUrgJ8cns0ioQ3XuITSIVVG58ky4PyRekgIsJ8Jn7KgZ520DJVq5qNj8+T2HKyBODuJa1lTCEU5qd0OyAy5VnZoN9vKG06iM2kA5NhqDLskVX9i0pzkBNLLvJ0gweAPU9B4t3a238J6rePSd82PS8fYEDb6ByOWv76w5U8U+UhYM4JNHcftxXK1hf3n8JKt+Yi4rwdBYcPGEwvr/UgQXmvReED75B99Fig0B6zhVJqD4sNbWYOQrOLsa+RbNx8q9TsPubSyxIKeAxaKYQiHiwur6M3Xc2g11XoGsPDU79ZQqOs7ZDOy4JO8DMbdnrYxxDHwPf6MwIl+a3aDx+PskCHcsGez49R+iDi+/jdz6/ZT8iladeZVcRLdyWJt2dak9NRR8HdnnzKHa/OIPdPwP71pxiG7WA86A5sBE6Sc+PTVey+O0MXNGdn85OtdJdF9m97LE9nxCycNEYOLqbs2V4DWkHpKZa91o2M+E3whOKCjVOvj0eR/n/Y695dzjLcM16occ0J6FXW1n28BWCnDpVGyCZwRPQi20uFF5ejz3/nYfT2+bh8MfbcJWteJx6T5e2JDKhvhDLMlwFXP1mCS2iUDg7sosC9ppviS38s+TIFyjLag99GIrjbH58nsK0Y2XtEQkCGyvh9VfXNGdgQYemApXSVdLxtX/QdRkMPTsW3NIuC9kp8Cuq09mHqos/9Osnl3WqWbALYxmo4FdUvfIHaN74UHq8jnv2Y4HTdzj0np0DfT5VZAvBWt++m3g3l/4ravjWqtMA6AeITdrnjMz4+kMOLaJG0rZT0nXmlyNIKmKXDk5SUKuvKjEKGTnSjV8WYPezIdj34XfsxlTY8wDZYH6lu8VAp1T1kgJV8ym9nFm4ANIufMLyV0nUd7hxk12aOcO+t9jUbKm7kCRE3SD4apNVtxFw5s8741r9IQfBPZaNWXfYWrBYknwUyfG8QaTZdglp7NLScbjY0BYuyxHgx1YKlfGIj4iWGtm8Hfgbn4f4UzvFBq5yMxITi9mCs0XtsOnlSCSz16X0HQonQ6mtp79wvTA1WmfIoQSlfCErAzF43lp0H/Q8y0i1myfkUdT+QTfEQ8x+HAbDYNm/hElf+GaxjDSkie3EAnH44J7u1s90OPQ/+ByKv74Ao5GjYcincQGNvOB0VEddZ5dW0B8kRV3pOVdd3S3ebpVyVNULNudRwAML09hCz7t5XrrWEAuPwgMazC+1SNwENVG0+CgFA+0TqNIdG41CuRApFFBYCQ0tEIXkyGssgNvCM+QJsWmEB5zZRdrlLeLteu6xbPrZChmlwmcmnt0eUTdtHHOXMebmMIfriI0Y8tJuTJsTwgKkBukRm6HWSRMtrFkgZqG/3wu/4emlddP4nrxdF8t+r7Fc39AHrn35kAIL2N7uMEExUi7qBGysx/ntYbh6sxhKR38EjJyFSX9ej2mLtsI/QBqu0Cq+LQwTtBjbtGvsM0U6pnZ/r/S6iumsnh3brPeUJhsxTDR56Fj5HalR4+7Wb8FzMLSpQNWJL6F5jWXA8/nEsmHp7nrCzgpDE/o9Jwo3xefMAnpEM59Ho4xhUG+d0g/mUprU2HhddVmUdK0hliYJD2gwPzcL8c0r0zRrL7euKu0TMNDdTA+CsQm/1ECj3XhoiR9O4QYL2jZ9nhCyVcdunuyvGhlHGtvpdY9lcz5XHGNlm+knDxy6Y4o+x1eSrWPt5AEXOxZAhX+kYettPjhbpyifZbSsXR0TjtMnGk4R0G6McGURl9krBLwC5rKV9Eh0cWHzLU/BzYbHAaevQ8zGUPy4km3BbNuG05cyUWasQq9Jr8Jdd89nYYGQISttvMXbzaSvchK2dkpLUsQG0qG1c9CdAH0XFmBzTqFCCHra6TNU8s92Ox46pmfBv9Usi/3qKPs0im140kdnzFEXC8YJLMCa+sJgtPScb8WiOl26+w7dYDfzbXgO1xmmuIMTPGdpd0oxIx6DJw8sWeoW/sBgF7KFMdX68zMN7S1kkiWZ4vhvHSlIW3jBoYmt2JLEDN6LZWivCMMMgqCZ6MrHI29nIPui2KRVLaypnKGafLex1C+QdJ3N1awbPCfOhzNPSW9eQ1KqeG9991g2t08ik79mK2fY5hxE8lfv1JsyjjS2gnKCxeQl6D75bseA86MXRuOHlaOxOzyZLQNz+I9bBEvt8ABTmJbJ2hWwUymQc2IlUo7qTpvrHamAwjAk8yEZlsG6Ow2DE1vblCVH1wvM9cVDk7wZKXv+govCusgc5nw0Q6soBfn8Hzi4w77ZXwwndHHnI/6lKFA3toIjHU37HjImHXZVE8OC7Cc6Y3iM3qJNMPKrkA4dGw39ZcNZAFZC39MBeqVZqLpZwj6EV1C99ludIYTm9mPe+BwKfzPUpMeg6ir7BrsNgIG7BjUVDtA3YI+7eBJVv7DNQG1gDVgIw1f6Q59t4tWYs8edeQ+VX/A9f42YuxXzp/FMLgnhk2YjQWyVSIdFWRSzxIVlPiVJyKuyZFmQLUzZKi7tl4U4/g0LGmPexWC2CQ4LZ3g4KFCSlYRstoldzDbHf//2kDQvSdAqjPmLuDOtMIPNj11zdTaHAd/RtGJGvXFPzvIv+zEpiGdzxchIyhYyYQP2fBKWLJDGV5+A79ol6O/Ast4iNdLY4rHxdIIlf34HFuP4V/XfK4M/bEXoRE8oqjXITs9ACZ8hy4pzf5qNuAixj4A9z/HseSqLilFlYY6Sk+/g0Drd19LMZcON+BjjXwoSsmZNgRrqHHHDW+mgweUX5wrj2fUM/RgzlwTBgh9+9/54RB6X2iV3HjIWzNreZm0K5F9aj4N7tEMCde08M8jJykEJX0OZ2ME4bTOOHmhwNEv/9Qgd64OykmJYKs2ReGA0zuquEwwXYcDCobDMlebDKB08YMdzAk08Dn+4oF6Qthi6FoO6m6KIfQ5On9JduE3o8hoGT+kNZf55HNv539YNTxBZtWumqz3sqiau/peYq7maxP5qDx3rAj1h6EE68sDUQRyG8OK5nK7m9mPWf4HKJLad7BIgjOcauLJA8PN/UcVTKf64gWOgLx3vK4jZiWq+x5kFXH54W/WJJgIul6RGPs8ms9ml2NKIbFz67hSKrT3h4caCCgsGaUe+wEltUFF5wKMru48FXE7pwH/15Qk3Z93URxK1GOEseCUUaKB0Zv1YwK0qSMLJda/dEXC5ws9WIzxKjcIqczjz/8EmVztnKGuPKNqL6++swckbbJkondj9TlBWsaB8YM0dAZer+mYF9h9iAVKjgL2bOD8PlTPMGw6wRn2H6yzzU7CAa4pcJB1psPKodY9lwx1ZiP1rDuF6FtsksuDPUfy/NiYWUNY/Mk2UwrJkniWWZSO7WVvZkUjfE4H0SsC612z4e0nNvH3LOzh8IZm9x+awc/KAuwebHM1hZeku9dFxLhKJLNLxgMt3yqXoBlyOrVDM9HTmwyY7hQb56ZE4umX5HVlxEVtbZLLgbNHzOQQGhEC/yYzXlG2R/QlB41nAZd+x9PNfUcB9SNAJb3SZPgmD1dNhkP0bNG81tgOoObTZnPbHA48Ys1cwcP1MeGcdwg+L3mkwht5Jl43Tuxj1fDBMrmzGvp+2SY1t0OUFFkyDYcvXx+zbWZ4dibNhX9YOI5kGvYcBfexhLIyVVSA3+ltERTUjKyYdQjuP6T5EbB6D/t9Z0DW6japjO6RG0iJ2U+H9LzYZaRB3eEPjOy07G4cFCJgWDDtkIvbIfQi43K0vEbV9Lc6cjcOtps4eVqRG5tUInPlhCQXch8wjnumOhv7yidC3t4aesZEwZFEd8yUqPzkq3t0qj1qmOwe+H0xDNwdzKE3EnyjnRX2C/cIxxg11kmXTZRF6TR6KrtYKGBnz16xB+pF3cOJkpNSBkKY94pluBWAljg/XqGNRuf29NgbcR1E5TK1t+X41FGZcwpmv3mki4HYiucawcjRnVzTIT47GiW2vUcAlzUZjuoQQIiMa0yWEEBlR0CWEEBlR0CWEEBlR0CWEEBlR0CWEPHQaL0/vBKUPa+s5CRamTdZQeeDo6AVCyMPjruXpg9H1mRfgLZ2xrjwjAmd/3YLSDhbh5Au6VIJdJlSC/Q5eqzD+2UCd+nHyl2K3HrsRfg6piNu2vPHzddzxHHUl48TKebXnZmqTwRvx9AgPpB8ZjRMnpbb2YLMA3aeMRw+dOnOZsftx9pf1whnu7mA4Eo5jZyHA3wPW0qnvNAlh2P39OvGG4F7l6U2hr/SAsW0wPIKD4WbNAnNeJI79+GWHOi+FTMMLVIJdPlSC/Q4lmUiT6pLlPKB1vVI44Y1b08tQ5zmm5IhhqSRHup2cWr+sT0dnuAAD5k1HQG2duUyU6JvDpe90jJgyXeqkSwXHGX/B8L4s4Orr1JHLrH/monuXpy9FdUkcSlO3IG7nalzMYMHGJhj+ve5Peaf7RaagSyXYyQN0azUuSXXJ4jpqqq7zHE+LJ9tF/kXpdlPZcQdlMnYUvFi2Wldnbjb2rxHrzFn3egY+XaSOWpYL0I0/gFdHXlNXR45XX67T0vL0Ccg8eRG8IIl990kwFhs7BHmGF6gEu3BuWyrB3txlw93fEuxajZdir0/sI17nm8X5qWdwevdKlDTcRnVgm9ATx6O7gzmvmlSrKv1X7N6yGlXaEu9S+52aGDa46xDAdPgvXIBeiMbhExYYMNJHOAl7VXkmrvy2DrExOj9HlkrJ84yTf2bKbkbiSJwK44ffOW+DbssxaMxAqGo/X8k4v/c9lnFqzx3K/u8r7P9aFiN2xwJcus6zJ6bnWkx60h9G6nD8snklNBgJnz8tRT+bTJz9ZDYS68oss2C8A1P620B9ejGOh9fVpcNA9npHe6CEBel9YbqljnS0qjy9H9ymLYKfjRoXN76FzA4ytitLpksl2KkEez0dpQR7o0JQna/drM9kmZI57LxHYtL8VfUqTAib0HPETWijyjykazeJ2ZSZVSKdYS0TN6U2cVhDgxydfm0aNlD2xKAh7M3nQxA3i1mAbVj+JxAuM8VS8igXn1+eeTAG9W1ktey1CqOmh8DFimXXajY/dR6qrTwwaNZyeAn1DLmdiP0xEjm82sZEqdqG4fMIGOMPpSYZZ9lKSRwUCYQ9fwz7XOXoBFyuLDFJeL02tn3FBi1puVbdLSi2qjx9HAqz+KfeGmY8Se4gZAi6VIKdSrBLTbU6Rgn2xkVAHabdrJ+Ngx+yTePLLKhZBsK/n9SFc/OGHc9uWYb3439m4IS0ScynE7+sF/tgG+KlNnFYQ404nX5tGzZQIOfUAuzfyOazMRT7LvB/oIJbL/FedJkOP55H8NLvH4vP7/jHy3BdUxtFJSq4DAtkYYlnsHNxeDOb3+YZ2BMWy94TFboP1RmDVS/D8dMsw+WVjSfNgl3oDHQ30yD95Aak6wzbCJ8BjebOHWaVLLCyCxOlrXimtlkbWWBnU2/x/TRxDxVvC9Ny9px0tLI8fWVFxytO3/5Bl0qwi6gEu44OUIL9rnyg8HgeTsOXwn34XFiX5ggZmrVKJwCVlIgrMacQjJq1Cl5Bs6BQilWB5ZGM1DN1C6csv0Fa6aMC/wjnx0egsDbuRCIlQRoWqBUCGx7d8i4jXjtkwF0+hmT2oi1tPKQGkSZ8HU6z74tlz+cxqpsCmsQ9jZ9hrbLi7uOubFm5SpU03IW1F1uNWKrE28J0l52OD7n2D7pUgl1CJdjrPKgS7M1gswiDFq1H6KxZGDpkJNuEZ1P/Ro7cuLUcp3ZGIJGt8609AjFg3PMIXbgV017ZCHcXOYPv3ZXk1R8eqyprODDtASv+4myCMUWn5PzTSxfAv9GoxwL3XqkqcmUyzu7SZvUNmCnvXGaGYhas0bBonrgY+1eKRUJ/OCJWZC68tF68LUwNxrrbUJ6+o2ns+39fUQl2LSrBXufBlWC/u0C4T50Ad+NiXD2wGj9qA8D26LodkDo015bj7KcT8eMHi7F7ZxhiEvJQZemBQTOW1t80foCUNk9K10QGJg334yejgKfxmkxcuqPkPJuiGtYKDIbLxIFCFg1DDwyYukBorROPPL6wlE6wazB8bODmJATiopxrYkNLtKo8vROs7fl2YAnKW/OZbiftHHSpBHstKsGu40GVYGdf+Hz+wTOH0q6xbNQb5vzc5CXXkRhVt4I26eHZ9FEhXGU0C8DrcPX77xHPA1gjWV61sDZxgmOATFlweq4wXmztE6KzAzAY7t4N//9OZPGCrApb2BlcblBynk2XfhW7SRSDX8QAFwUKL+/EiVQNFF5TMGRwsHQvF4a0FL6MVej+uM5wjOF09OjN/3ce0i6Gi20t0Zry9IrH0YUPcRWpkV87jvbgGdjauy+Xrt9/o2fAMMABNdd/RvUZ3eIs7HqvyTBQWaImay9q0nhp9eehP8wT+tZK6ClYntAvBPqB7EseqRsBmtuP6TceBg4O0A9ia0YnX+ixQGDYzwg1Zexx5uxxrhaoucnW4tJmLUq9oTfQjWXi7NKM9bu8HdXnhWh3p7kfY/bMIHgPCUDBt7saBNFe6DJ5IBxZtlRj+wS6PT4SDqP/D0Ej2BeafVjSjn6IhN9Z9sdLsM+bCzcvZ1grDWBgPRJ2IVNhoyrCzYs3pHmJSgp7wGmwGxy9xsJjMJvfOPbB97eCfoUa5z5bhgK+T63WFZT7PY1uzlZwGfE07ILGw2XUVHiGjkXl0b0o4mlxXBUqh4fAuYsnuo+bAKtBT6PPhB6w4c8vfBWuXqhfSOe2y0j4+tqhS89QOA0aA9WIqXCbNBXK22yFoHP8etntXnAd7AnHrj6wVCpQ8PsWxJ/RfS3NXDa4gdzSALj294Rb77HoPmYCbB57Em7sdfjNfAJlP4fVvm21hr6Lqa+PQLf+/WGUuhXpTVQELrcYAV9vW9izZWnrMQbO/f+AXoE9kXbhCCpZBm7aayxcbexg7+yPCvthbBm+jsF21cgzM4XShH2eLO1QdOMCKr3exah5r8GVba0593kSrn2ehv+4EXDjiVXOJVyI4vOrU2o+HD6edmxF+ARUviPh2JM9ZuCTUObvQQ6PjnzHUugL6MrnxTJCKzP2mbAYDjs/Pu9+KL54RMj0+E5eh0H90UVRgNTje+qWg9uT6OlpjaKkr5HKV3QFhaj2GwUXayd49Z8M267j4TlyKhz18mBiYlrXjylJd4B1gB+cPYLhF8T6erPPDHseXsOehuLWLuRqs0Sb5Rg8ow+sS6Lxv23vIfuSBcwG9Ia7mw/yr7DnIj5BlKtdYNHXF12c+sMvYCysfKeiF1s2rmxLSpO4DydOnRM7aknPvfzWOcRfbaoKdwI0VmPg2qULzI1Z4E67V8ln9n4FP4/uXYxQFPc9EjP4mqVjaNdMl0qwUwn2xj3AEuznNiMyoZhl+uZw4jtsHJV12T6ikbJrJy6x12DhHYxBQ0LQzTwHZ/d+DzXLYBWWHug1METctLazg9JAmocwqWDBXkdOQjj2fbVcCpB1qk6+h0MnkpFfqagrx+7Alrv27W5kx5LSTrrdqp1KkUj8ejNihMPJbODC5mNTHInTEeo7nhvyVuPExp2ISS9GhULsy/+vk9IWlrWHWk2Az8wQlqsXI/aX1eLOucr1OPtrLEoUHhgyfXndcixcjdNsfpfY/64y5zvHVFBWFyP9wk78sr2JMeBmaHZ5ej221TPgLZaYsDWgJgHXzjVIyB4wOuGNLirB3naPYgl2Ip+7lqfvx5LmF9DN3kgMyJpsxO1fgdRbrT4EqV20+460hwaVYG+7R7EEO5FXM8rTl2SlIPnsDhzb/vcOF3C5RzzTpRLsbfcIlmAnpA0e8Uy3gkqwt9kjWIKdkDagMV1CCJERjekSQoiMKOgSQoiMKOgSQoiMKOgSQoiMKOgSIrOHuXw4aTs6eoEQuXSC8uGk7eQLulSCXSZUgr1j6hzlw0nbyTS8QCXY5UMl2DuizlI+nLSdTEGXSrCTR1nnKR9O2k6e4QUqwc6eLJVgb/6y4e5nCXaxFLrFtWjkeATCy1iDxCN7UBI4Hb2sgMLrO3Fox/raE/Q0qwS7tkz60XXI8BGr7vL3pexmNE7sWowc3XGYTlQ+nLSdLJkulWCnEuz1PKAS7JaentDERENdqYDXsFEwucqvs3bfAairp9DMEuwS6/4s4NpXIJP15+fcNXEMFApV1lv5daLy4aTtZAi6VIKdSrBLTbUeUAn2rNOI+S0SOfxzwjLS878tFisg19PMEuwSpV4KjuiUOD/LlxXr2113/dOJyoeTtmv/oEsl2EVUgl1HByjBXs0jb1OaUYJdUpJ4DDm1sTESibFiGXMbVf2CkIRotX/QpRLsEirBXqcTlGCXVDX8AGblCgFa30DnXelE5cNJ2zX2/b+vqAS7FpVgr9M5SrBzBg0Do71YCbi6Sudd6UTlw0nbtXPQpRLstagEu44HV4L97lpegl3pNQx2uiXOu3sI1/IydXbAdqLy4aTtqAS7tFlLJdg7cwn2wXAf6gvLonhcjikQS5iX8eunYNn3j3C31JYzb0EJdqlseInGFD6Dp4klzodPRQ++x7MkGpE/HdIZUug85cNJ27Vrpksl2KkEe+MeYAn2u2pBCXZJVeJ+nEwzYm+nB5xYOlyWE4vj366+Yziis5QPJ21HJ7zRRSXY2+5RKcEu/Tii8NJ67N+zU2q8h05QPpy0XbvvSHtoUAn2tqMS7HfXCcqHk7Z7xIMuL8G+BoafbILRBy/D0MkI1THfouq3thy18KjhJdj3YNLmcDz9yZsY6KxAXtQGRP/S2FELBBUXURCzGjG7XsOx2iyXO4/UsJdxes+/cC3mIMpbekgKeWg84kGXfbKpBHsbUQl2QlqCxnQJIURGNKZLCCEyoqBLCCEyoqBLCCEyoqBLCCEyoqBLCCEyoqBLCCEyoqBLCCEyoqBLCCEyoqBLCCEyoqBLCCEyoqBLCCEyoqBLCCEyoqBLCCEyoqBLCCEyoqBLCCEyoqBLCCEyoqBLCCEyoqBLCCEyoqBLCCEyoqBLCCEyoqBLCCEyoqBLCCEyoqBLCCEyoqBLCCEyoqBLCCEyoqBLCCEyoqBLCCEyoqBLCCEyoqBLCCEyoqBLCCEyoqBLCCEyoqBLCCEyoqBLCCGyAf4/Xgxd6XG5VmwAAAAASUVORK5CYII=;" vertex="1" parent="12">
                    <mxGeometry x="13.669999999999987" y="40" width="232.67" height="122" as="geometry"/>
                </mxCell>
                <mxCell id="30" value="Array.prototype is the prototype of all array objects we create in JavaScript.&lt;br&gt;&lt;br&gt;Therefore, all arrays have access to the map method!&lt;br&gt;&amp;nbsp;" style="text;html=1;strokeColor=none;fillColor=none;align=left;verticalAlign=middle;whiteSpace=wrap;rounded=0;" vertex="1" parent="12">
                    <mxGeometry x="11.83" y="180" width="236.33" height="100" as="geometry"/>
                </mxCell>
                <mxCell id="31" value="" style="shape=image;verticalLabelPosition=bottom;labelBackgroundColor=default;verticalAlign=top;aspect=fixed;imageAspect=0;image=data:image/png,iVBORw0KGgoAAAANSUhEUgAAAXYAAADECAYAAACLKwqvAAAAAXNSR0IArs4c6QAAAARnQU1BAACxjwv8YQUAAAAJcEhZcwAADsMAAA7DAcdvqGQAAABhaVRYdFNuaXBNZXRhZGF0YQAAAAAAeyJjbGlwUG9pbnRzIjpbeyJ4IjowLCJ5IjowfSx7IngiOjM3NCwieSI6MH0seyJ4IjozNzQsInkiOjE5Nn0seyJ4IjowLCJ5IjoxOTZ9XX19NXR/AAAtwUlEQVR4Xu2dfYwVVZ73v76BtlcBb/OmTnfrREC7JzLNW9SxZdVHk07jrrs7vGwvI8xmJyHLgy5/dCBx5snjmEBMBsTF8MdkR5y2xWZm1hntdDI8wLSt4qLQaqQFIZFudoAW+oINV94EfOp76px769atui/9xu3Tv09SsepU1bnVmHzPr351zvd31ZQpU76DIAiCYA1X6/8KgiAIliDCLgiCYBki7IIgCJYhwi4IgmAZIuyCIAiWIcIuCIJgGcNiuuPDNb/A3VOfwIgRN+qWJBcufIO9n7yF7U3P6RZBEIShTYEL+0q82lqDUrXfgeaqWryg9hdgTfNSVEb87elQ1O+duUAfhfPph5tE3AVBsIIBT8WMHj0643bVVVfpKwOYOxHR+G5sqHoAs1PEexOWV7OtCZ3xGDp1axCM1IO4ePa83nMJu04QBGGoMeDCXlRUhF/96ldYu3Zt2vazn/0M330X/sIw7/7JwP4P0KiP01hRgdLY0fDzDkHpFxz7T7ze8Ba+1ock8DpBEIQhyIAL+5EjR9DQ0KCPkly+fDmw3UtpNIJY1yZ9lM68CcWIxzr0UW6cO/YxOnoq8cRPfozRuk0QBMEmBmVWzPbt27Fr1y595LJp0yYcPnxYHwWxABOiccS+1IdpLMCsSU5AvyNc+NM5jviF2zH27O/QdkQ3CYIgWMagTXd8/fXXcebMGbX/8ccfY+vWrWo/nDJE8QV2btaHaTjnI93oCj0fxFgU3z4W357rwcgRukkQBMEyBk3YT548qVIvZ8+exWuvvaZbM5Atf64+rGb+cBrMecQOj8OEcfpQEATBMgZN2MmOHTtU5H7ixAndEk62/HnWD6sazlP3c8017Wjf/n/x/t7juiX4OkEQhKHIoAo7ee+99/ReZkqjmfPn2T6sGrj4KJWRKHtiM5547P/ggbvH6rag6wRBEIYmgy7subES5aURVC59Hy3NL2GebnUXJjltre+jujTTh9UkXHTExUdhETnbZXGSIAg2IRWUBEEQLKNAI3ZBEASht4iwC4IgWIYIuyAIgmWIsAuCIFiGCLsgCIJlWDErZsSoYkx4cA6uHnG9Oj7ZvhM9X7Sp/YGgePojKJpQgq5338aFnm7VduP37kJx5Wx8vW93//3295vw7zO+7+53/QFrW5519wVBEDJgRcROcT3U9IoSdGu45RX8dAaw5Y27sdbZtuAf8NPKxfqkIAhCOFbNYx81uRJjymelRewTqv4O1xdPVPvnuo+iq/WPuPr6Ikx02r+7dBHXRUbhqmuuTZwj3nsIrzvdsRc3ld2trvXC37t45rSK2M+fPJ64L/U53GpQ0bb1qHkm+4rZsZUfYg424DdtrzhHi/HwnDrci//G2rdF3AVByIz1OXamTa5xRPxQ86s4su13GHHzGNVmoKh3t7UoER45ZqxKqXCA4P7xj7aqey5fOKdSLCc+fQ+df/o14of2qzae6/ivDSmDiPktDhKR0ilqAOkN426+CT09FPXn8Q/z6zDm8H+jxz0lCIKQEauFnaI68pbxSrxLqp/CrY/8OJGHNzDC/uZ/DuijJIzQvz11Uh/lTrxzHy6fc+2JU1mFp6oeyClaT0JRfwwnt9yNP+RXT0QQhGHMsJgVw+iZkbXZundt02eCOdt1SP2XAwG3SxfO47Qj2IPJsVOnUTKDoj4T22mG6bxBjHJPCYIgZMRqYWfkfMnZTIolV26+614l5kypcCA4vOX1kCg8H5hjfx9NLy7Qx5k53tGOnm/a8ZlyOF6Mh+/5PnoOt6pzgiAImbBC2CnapX/7r+rDKeF/S2oWq2mQxz7cgotnv8HYGY+i7O+XqI059EycOvAprhkxUqVvzD38mGrgecJoPpf+esWJxXj7cDn+ef5e/Pv8Otx7+g/6Q6ogCEJmxN0xAIo4P4Iebf2jitSD5q0LgiAUKiLsAZhpk178UygFQRAKFRF2QRAEyxgWs2IEQRCGEyLsgiAIliHCLgiCYBki7IIgCJYhwi5YDheGNaBOH2Umn2sFoXCxaFbMg/jHFX+DErX/V2xZ/RvsUfvAuDnL8c/lEbXf016P/3z7oNqv+Mkv8NitalfhPdc7+Ax3YZ/nt3OBzzHlwHP4/Qe6YUC4Aw//74WYeiP34/jkjTXYnvCfCf+36y3zXvwzllQCbesfx/LNunHQWYA1zUsRbX0AT63WTQ519e+jutTd72xOPYcVDWipimFD9TI06iZBGGoUXMQ+evTojNtVV12lrwyCovQc1gQIE0V7jXPOL9yH3uH1zvbGZ0D5k3i4TJ+wjoPY/h/8W+vxyTe6KcG7+L36d/sLXJecvrIAsyZ1o7m5G5Puz81CYSCY9+IiVMaaUoSbA041mjC76gFnawKq/4w1c/VJsroWzbFpWJij9YMgFCIFF7Hfeuut+OUvf4mrr04fc/bu3YsXXnhBH/kJj5YZsc/Bm2minhopuxHtLbt47PZ1on00pupInwOA9zo38k1G+f7oX3HkL1jz23edneB7cN9Psfyh293GBG7EDKe/WSc9bxC8dvpJvPYfbwLO31PlCPWo8h+4xmCJ33EoexL/Ml+3B0bffJYngbe9Ebsh+N9QRbjR3blHsXNfQtOco6h5eyKaFgH15j5Gw+UxtEWnoVL9s3aguaoW/D9KwV2ILxCrnAYVTMfN77lRt3u9t51pk9mIed4I+JxVMeN3z/ucH9/ofWPwtfE5l07ja0Wq6ybbvc8tCEOMgovYjxw5goaGBn2U5PLly4Ht/UbZVNxx41+xL5EOud2RwDcT0fyo6U9inNNa8ZOFuKPDjf4Z/R4sW4h/vA/Y81sT8Zq3BmfTYht2Dz74jWrbcsTz5qBFdU+r8wbhPBN/k1TcdTsO7XoTx/RxSfkY7NT9fTLqb9z+KMzzTbuzvQM85oi46WOwmHf/ZMTaVwGbP8B+TMYsb0RcOtkRVkbLD2BDWzGqPJFxpDKKdhVJP6Ci5uoVbN2E5dVum7pn/2QdTa9Ccxs8bwQrUV7agVYj0HPvwyRnoNiZkgYqQzTSjS62cZBZGsX+trh7ysvmo4hFfM8tCEOIgvx4un37duzatUsfuWzatAmHDx/WR/1HyUO/wPIVzjb/Dhx8wxup/hU7TbTc4UT7TqR8zJH6caPiOPiZifwPYk9HHKOK79DHQfTmHoeOT5wr70CFSg09iCmjPkOrJwff0/4X/aye/u67CyXOgPQY/x5uaW8DveOFhY6o5hy9Mg0DxL7k/ibs3O8VX4fOlkQE3fjM4ymRcrytSUXvhL9pUiiMxFta3W1JInR37t/xhdP5fZjHgxUViHruz4jJoztvC8HFFDsQC9B7QRgqFOysmNdffx1nzrhWuR9//DG2bt2q9vubZKQclJq4khzE9l1f444fuIINT7TuZ9yYpNiptIyJ2LmpAWkQYaQciaByaVKII0Z8e4MjwtVOJN5sInZvhL15GVpjbmRdV45ktB4KBbsM1Z6Po6VRz79dAk9kLwhDkIIV9pMnT6rUy9mzZ/Haa6/p1ivNQRzribhiq3gQVeUR9HSbaJyMxriUD7C53IPgCP6DA+gpm4qHHV1Ppoj8ONH8rfqNwLn+0K0z+v0DsIqYm1/KSZyZhmHO2qRO+IGyMxJ18+a9JR5Dp9pZiWpPxE5eaOcH2pdQ7ry/pETrQWkg9QYRR3z/B+7bx9yXUFUax/4dvgFh7kREE78pCEOPghV2smPHDhW5nzihqk0UBHt++xf0lC90Ux0r/gaj2us90xTfRWs7MHW+ToX85EHVmvkenU9PnP8pKnQ7+9vX8wNMxYGUj5lklKc/vGPeNt7F79/5Ovn7zvYvcwIGjAGDaZgIYl1eoVyF9s4ylKt8eS9Y3YQ2TMMSlYqpQMyfE1+9R31wBXP6KbhpoMo5K/WxS+MzG7F/0lI3tbN0GmLN6dMx6+Y4/RnxF4QhiGXz2PObFVP4BM9g6dvfk/+smIIm4wyW4HnsGZF57IIFFHTEnj/mw6E36nUxEe7gRrC9heLLv4PTL/sr95/s00y7TEJB5zmzSGkIQEFXUXcUraEizBk1nKuex8rTaqBZRF0Y4ogfuyAIgmVYFrELgiAIIuyCIAiWIcIuCIJgGSLsgiAIlmGFsGd2fBymcNZIyqIiTv3zORkKgmAlVgj7qFGjUFdXh9tuu0239I3i6Y+gpGYxRowq1i39RTEan67Ch862/aEi3dY7uBr01bBFPxT1tGmAm7C8tRuVi3JbQSoIwtDFmlTM3Xffjeeeew6PPvqobik0ivDy4nuAba2Yua4VD7/j+uD0DjoZxrXRlp+VeJWiru1wU1CrOMW1UBBsx4p57CzAsXbtWn3kmobRXybMioCR+IQH5+DqEder4+8uXUR3W4vaL66cjauuuVbtG06270TPF23ugYqGuRQ9j9WMZHwJts+PYPu6z/G8bsoIV0BWe0xfOpswe2FHqje5Ju7xE2ckX94e/mzZzguCMPSx8uPpD3/4Qzz//PP40Y9+pFtSudDTjUNNr6Djvzao7fzJ4xh99wycPX4YnX/6NeKH9uPyhXM4su136nxC1PtA7ZRxiBw6loeoI8XRMB7j8lPtTd7s7FPo9fmE9a0z6FSVdqA9g2h3xuKITpDqQIJgM1YKO+1+GbG/9957uiUd5tHL/n6J2q4vnqhbc2DzMtQ4YpprxFv70HSVU396ahFQco/ab/T7HfioKy9DZ7NJpaQba82bUKyF3sedUUQ6fS6HPmhTm2rSJQiCbVgn7CzQ8eyzzypnyDBGTa5EpGSSSrEwIj/XfVSf6X8a3tmFmW90II5uvLXOza/Py+iwtQATop78ufI3T43Cw8Q5VPATuFWGMkX0giAMfawRdpbOq6+vx8svv6y83LPBvPrFM6dx4/fuwsgxY3VrDmjzqdAZKUGMjeSehkmBH0KnITWlTuHXu3ky78XZKM0S0QuCMPSxQtiLiorw85//XJXUy4XTnftw8ew3GDvjUUTv/RHOxbr0GZdTBz5V/731kR+rVA0j/L7w7F3FOHigWx9lQ/uIqwpEsxFr3o14StEHt1hEaTXPO1t90m88pVScH2dAWljZjeaFft9yQRBsQ9wdB5p8Z8P0iTD/8fSK/oIg2IuVH08LA70YaX4Zjm8bDFEnm7B8425Eq/wrTkXUBWE4IRG7IAiCZUjELgiCYBki7IIgCJYhwi4IgmAZIuyCIAiWYYWwix/78GDei39G04tenxtO42xAnT4SBMHFCmHvbz/2wYIuk/R9p29Nf/Psk67v+4eLS1Cr2wqbzCJNUV8SbUkanilWobmtGNWeRVqCIFiUiil8P/bBg8ZjT+Bz5Usz85VDaNDtBc2KCpSmrLD1sKJBifrsgFWzjc+0oLO0QqJ2QfAwLP3YydXXF2Fi1d/husgodUwjsK7WP2Ztp8cMz9Gz3Zwjfo93Wv9279qmonEajhnMPROcvvyukt/Ge3DUOXf5HItwMIKtQdTjtZ4bLOgxHcUfZTMbS6Ki4YTJeweaTZGOFE/4ZDuvX4gW7J9Uo73hPfc40PO9ulQfxHdjg6nkFOQx//ZE5W+f6ocTR1tiQRX/HSrQHlQ4RMEFWIuAjbIASxAMVn48zebHbkSaHGp+VTk8GoEeN/Mx9V+2H/9oqzII86ZKKOosykFnSJ6jiZgR9QunTiY83inqhP81baY/es/w9+j3Tt93DgI8f3jL61rU+8D4Ytx9czc+y0fUJ32BDdrbfXaKqHs94YtR5clvRyqdQaeV59ajLe78/boqkxJ1JL3iZ6eIeoDHvLZBbnZC9c5mfU9VUqSzG5dtQlcsguid+lAQBDuFPZsf+w1jb8O1N9yIeOe+FCGlQI+4eQzOn/hKtbPwBs3Cri26SV8BVZTjm/85oI9cbphQoiL40wfbdUsSk0enmRhNx/zVmcJZhacckcs5WqcnjbYwiKAYT3D/yWw1W1eimsZgKbVRiRMFVxU7UXMySm7s6kYk6kbbtA1mtO360ZQhGulGF4WYhT6iToQekDLJ7DHvsyr2wN/qbM9kXBZ+ryAMV6wT9lz82AcLvhmMnfUYLl04n3gDYCpnQPjqEB5etwsfnQIO6rqqM9/M4ig5dyKigXltj1hrlDArgXWFtO1tLbbePljoI3bUN0iQbB7z6b/nkoNosy98gZ2ShhGEBNYIez5+7CYSj5ROUeJruHj+jBLhkbeMV+0msj/riGYmznYdUoJ90x3luiWVS070zzcAns89Ymdu+X3f9L5sFKE4jzSMIhKFSYenkkyvMI1SnSjQ4RNhv5hHJwbbBidw/i5/Tp2Dg97Nl7o504D9HwQMJoIwfLFC2PP1Y6fIHt+5BdeMGImS6qdUmoQfM/3tTJ18c/jLrDVPWUM19ul7Kn/OvrgxL8/+mO7hR1K2fXf5ksqpG3jfGWdQ4MdVnr/tsX9KGWjypmIc7sinoMfmZajndEH6uqvNTDdchaeau7UnvLOp3LjJvafOXkmp2rS6Fs2xaVhi+ms2LpNZPOY3f4D98bLEcySLmLj3Tbo/ZHDjgBPdjfq8Pi4Lgv2Iu6M15D8bZkjAilVLo2j1z4oJaxcEwc6Pp8MNdzHSdMz4+nO7RJ3otwrvjBw3nSOiLghhSMQuCIJgGRKxC4IgWIYIuyAIgmWIsAuCIFiGCLsgCIJlWCHs4scu9C9cHOa1EKbR2J+xxizYEoQCxwphL3Q/di5Wol8MfWMGEhqSlf7tvyqTsUIgX094GoglF0ldKSjqsxHz+ORwodTy1m5ULjILrgShsLEmFSN+7IVF3p7wc19CeawpxSly8GFkTlEPsABe7TwbJmOWRO3CEED82PvJj93ru85raO1Liitnp/nD0PKX/jK0+qVnjb8/2htc4/wevdnpV8M+vt63O2Ft4P0tWhQc+/D/ITq1KvHMhmx/k7EbDnoGF0avg+MJX1f/Z0x4+3F0zXkf5e0PaOdI/n4F2puBau3jHjfPwpWni4DW/ZNRrb3kafubvK/G44Hj+sV36ipMpmCHqcrkPV6IjaF/K98oks8mCIWLlR9PB9uPXW233ana2Ffnn36trH25cZ9+6xRg+q/zvNd7hiZjR1veTOkvE3wW/hafjX0danoF5479VXm5G/dI8xy5/k35PkNW8vSEV3a/aElEydEJepWpMgcrQ3X5HtenvbkjYR2szMci05z7Nib83d37XFGH8XZfn/SlofWw16Qs1RKYFsbA/h3hA1hnzPyGIBQ2Vgr7YPuxf3vqpBLUMeWz8s6l0wSMZmAUezMghMEBic6TQc8QRi5/U/gzDIYn/AKsWTQZ+7UNMMUzAcWbFZiMv/vq2mR0PcHpt7Mp8WyNzzzu7tOkLOEV71x3/+Sk++TqPeg0bpYcTKK70Wyib2U/nNn+lwNB0kNeEAoX64T9SvixUxQZOTPiZWm8Wx/5cUpEPGzojSf8CpbXiyScJFmiz0TlyjkyxJI3rABHitukM2iwoEfyug7EdA6/bo4zmGz0FBgJ9ZI3rER5wrpYEAoba4T9SvqxGxjxmnJ33oi4L3g93BlxM/LOJ13St7+JaY2B9IQ3lZpMSTw33WLSJeERcm5Vk+rql+qarAZdRm9OA8rb86uRmr1EnyAUDlYI+5X2Y6fIcpoh+2G0Tk58mkwDnTrwqfovz/GabNMRWWKP4stn4EdUr4c7a6gyFcNnY1/e1A9TKDzHlFBf/6Zek48nPKN1f/WjL2NwkzGZxDus4hLQuOMLGr+r6L9KzbJJ7YOpnlLsSf8AyjRNaUXwVMu5L2EhSwgGlPwThEJE3B2FfqTQPeH1LJsQu1/OeqmK+WcA8Z6QKZCCUKBY+fFUGHwK2hOeUyNVdaZwUScvLGxCrLLGt+JURF0YekjELgiCYBkSsQuCIFiGCLsgCIJliLALgiBYhgi7IAiCZVgh7EPZj50rVHOZ254rnLvOOfV99nuxGT1L5tUV+rivrGhAS2vv/No5xTLlOdhX/Up9IAi9wwphL1Q/doq13zsmqC0ICr7/Oq4cve2xf1LiXTAYfxhna6zQbVeUlXi12e+bzrnofp/3oMVPQdcFiG8gwQumMmHmzacslqI9cLSm/wYdYVhiTSqmEP3YL545je8uXdJHSbjEn0v9CVeS+h0f+wIdHbOZifUfxWicPw5733B9YQpi/jrNvPyeL2zz2gFsXoaaqoC56TQQ006QSXKwL6A5WYb58UHQIjh9MRRhUY8OlJZL1C70HvFj93mUZ2v3+7Ef+3CLar907kzCJpdR+egp03C6Yy8i35uE2KfvKs8XCv23p08qj5rYJ60YN/N/KdMwQgMxijtTKGEe7qc79yXshmkRwHvN83nvM37wRtyNv7u559t4j/J6p90AUb7kXDKfpzih4h58OCOOdbkU0lAwIk76pCe81dVCoKSvS4rn+pyjqI/NVuZgxledz+hfJZo47qpBC21+vcv/VzSgaQKdIMsSv5/8bQf+ztJpSLGVcSL6NrUwic9cgVhbMSrVM5h2Z9dzX9ILnrj3BPrIE963CKiv9piQecl2XhCyYOXH08HwYzfnbnJEmsZctMZl2oR9U7jp2RLv2KdEloZgSlidzXDh1ImEI6QXinEuHu6xT99L8U/33hcEn7vnwKfquXk/n7uvPHtXMeJfducl6gmf9IQdsCvqk/av1+2e1Z90XCytUcUveK65swxV2pCMni8Jb3YdVdNLPenumEyr1JUXu+denIh2px96tyfvdVARPPt3Bdp9DiPerif8pMQzRBC9072t7n5HfPV96T7tZaiuimED+/L6yDvUzZkGhLhWKjYfRczYCwtCL7BS2AfDj914sF9305iEydcNE0oC3ROvuf5G5/oTuOrqa3DVtdep6N77u/mSjx+7gVE6I/4g6GWeTyrB1DJ9ogSITJ2urAReHq9PhkB3RFZiSjPfohFYLOmr7rXWVZ7r8d2o1+e8Xu00+4qbohmqj2ShDjpCUsTRyX4o+m7+u/GZZepvDLb8DU65KD/3xDPwGredvOD01+gZVBKowcCJ7LUtsN9KOO16P8ob3p8SEoTcsU7Yr5Qf+wVH6G8Y7wi7s3Ew8Iro9cUTHTE+hu8uX0LRhKEfhz3/ZitmbusGTnVgHT3X1+3Cv32lT4YQZsGbKnoOc+9zomPX8VEJcKtJR7je6ok+ElEtrX+dFwGdeil1hDf25UrMwgdoVy1liMa8drvBAh7mGJn6DLzG78kecB/fNDqTA03q3x7uTGngYJIxoheELFgj7IPtx37zXfeqfLY5R6tdpkVYi9S8CbC/yzonz/w6I/URozwhX4HAHHtLwGyQTNRGi/JIw7iElZXzplTWLDJpCp8AK4tfT8UjHdmX19cAG83bhhtRR+dMRJcTYXfGuF/hCLtn4PAI67wXG5JTFFWU7cf3DEGRtKetrt79NwyK0DN+fE0he4k+QciGFcI+mH7sjL55PQWcBaZNSsQMFsyLs1C1F6ZsmLrhh1OD8XCndzrxl9XL18Od581zccDhs3NqpHfg6j+KcP+dwN59uaeTXOdE1yedmyne0fjMRjW9z213c+0qLcPI3VNZqYX56pSPibpoRqwpERm7oh1xovijSuhZ47S01M2vJ+GAUIZqp88l0T3Jezd/gP26nb/nTjf0RddBVZbUm8M0LHHuof/7C46Qp7xZpEXoq9DeWYbykOmMdc5AFW3b6PmbBCF/xN0xR8wHV+/sFy8UZFb8Z/1QTmG0mrxnw/QCLtTxz27xMpRnjvBvSxuo3DenJdGW8L9ZEHLEyo+ngwkFn5ExI2vrRd0sRnqkCB81D6CoO6Tl3g1qlacTVQ/l6YCra9Ecm4Zq34pTEXWhv5CIXRAEwTIkYhcEQbAMEXZBEATLEGEXBEGwDBF2QRAEy7BC2Avdj51TITlHfeDmldsBjbxa0ix3+winRab0SW+a3nmnC8JQwQphH0w/di5kGtoCXYxG7Z++/aEB+hvSxDQP/AuA+gKfY2kUrb6FTctbu1G5qJ8HEEEoIKxJxRSiH7uBXjJ0cjy85fU+mX/1nSK8vPgeYJvrn/7wOwPzLMo4qxcC/cLCB/pxHvdKvEpRDzI3YzELTMYsidoFSxm2fuxh/uVh3uW0uTXL/w3mPsK+6LpIywFC+1wuVqLlL5f5E78PetgzmFWuxhPef58biU5DLMUDPAe4wGh+BNvXfY7ndVNG9O+4PuVJH3KukFyIFuyfVKM91LVPOhcPaf/xJMZDPdyj3PWDZ0dJv/UEIc9AkveR1HNM65S3h//7ZDsvCEMZKz+eZvNjZ847eu+PlNcLvc7pB8Nj49MS5F1Ovxhey8IWFFr6tfsrFXFAYDtFvWhCieqP4s423uMl0zPcUnGfGliMF3t/Rfq1U8YhcuhY7qLO1Z3Km5we5sCk+5MmXpHKGkRbeW492rTNrltJiMcUWfe+hB2wMtkqQzVtAlI8yunESK/zJnRC92PI9AzOuYWTvnD9ztWWFHWeqyr1uzCmQgvgMFMyQRjqWCnsWf3YHdFlNM4I3BhneaEIh3mXZ8K4Oioxb3pFpWDCyPQMNAvjOdoUBNY31YUhco02ax+iZ3oVnp5aBJTck1N9UhaDiGhzKy7hX+KIqPFFpw0tOpv07/tNrvzHGhpoxXdjg0m1cBBQ+6uwXJl+0SXRtes1ZHqGhPlWUOFnZZvrtepNJ8xGWBBswDphz9WPnakPRuSMiLllE+KBIOwZvG8HTO3QBZJpm97S8M4uzHyjA3F04y3ln56tPqlrNZuMup0t8QFSn3tbC7TfyjbI2tZBeb9k8hhPc07M9AxkFZ5iW3uFEn3jFklCfWYSrER5loheEIYy1gh7Pn7s9EYnrEN6pcjlGegiyfJ3zMF7qzipFIUjZnlVsh8byT0No0iWgEsli5Utj/Wul2wRclKMV+LVRBQe9gweGPn7Ss9lg9WcSrNE9IIwlLFC2PP1Y2denLlt463OLdcpjCyowbw7/dpziaSZSuG1zNtz4z4/qGZ6Bp43bUzVMHL3esL3BtYnPXgg1zeSTVi+cTei1W4KRG1GbH2V/NOi49V70JlIn5j54tmLTdA7PaL82mcjpt4GMjyD+hDraa9OVlAiLJuHSfcFT2dkbp6Fu8VFUbAYcXccDuQ7G2bI4xbI5sfd1O8QHBCcgcMze0YQbMTKj6eCQS9Gml+G49uGi6gTHe1X+VeciqgLwwOJ2AVBECxDInZBEATLEGEXBEGwDBF2QRAEyxBhFwRBsAwrhL3Q/diFdGjg5V0tyir9yXnqgiD0BSuEfTD92AsKzk/X3urZvF8KCeXKGG1Rzo4JaKUbrclvNa0gCIFYk4opZD/2gaEYjfPHYe8buXi/FBBOZE5RT/ddZwGMDpSWS9QuCH3Fqhz71VdfjdraWixbtgy33HKLbg2GVgC0BOCyfWMNYNpGTa7UV6VWTOLGfbPcn0v/ibmP13rPZeuPMHptaW1AnTrKg4pxuOPUMez4Sh9nQ/vLuMvwk0v916SUiePKTM9x4D26vfkl1Klnd8+rSFtd7/lb/Mfs37f8P4UvY4hHJ0plI0HoI1Z+PO2tH/ul82dx8ew3uGF8SeK6ETePSdjxjpv5GC45/+U9dGW88bY7U0Tb78fu749CP3LM2ER/fYHeL/Evu9GgjzNCgQ30Nd+ErpjHaEt5pmuDr9B7HGj0FZmGKuWjznPa25xWul5PdZ99blbzLWXFG0WpPhQEoXdYKey99WO/fP6cEl2KOUWd15GzXYcSIm9Mu8bOeFS5Lnrx+7GfO/bX1P4cgadVL/szND7zuCOOAeXbQnj2STen/oTzaJGp9FmfjpfH65MhZPI1Tyk44Qgx2prUs2S6h8Zf9GM3OXL+De7+KrR3moHCeRuoKk7a+zrQ4bGzPYP5VojlryAI+WGdsPfVj92ILkWdQnzh1MkUn3ZG4+YebtlcF01/Rbd/HyNvGY8zznFffN+ff7MVM7c595/qwDrlrb4L/5YxHZPZ15yuii6uEO/fQYHOfE8mgU4MFCtqMGn/Ro8vS3aHR9ZKRSbPdkEQcsIaYe8vP3aKLsU3UjoF1914s7LpJRfPn8GlC+cTJe9yxfQ3enKlKnd36sCn+oxLb3LstdGi3NMwigy+5l/GAHqZpwlx2D2ZBVrZ73J2S/me1FkvWVmJ6kpH19XAIghCX7BC2Pvbj/3sV4eU5/plpk2OH1ZtTLEc37lF7bNkHe8xH12zwf74huCP/ntHEe53BHfvvlxz9Jl8zR2Y1y6tQUuKEGe6J6T0nYEfQEuB9oBZLzv3p9ZN9VJXX4Nom3dgEQSht4i74yDAD6yjp0xDd1tLSvHrXlFxDz6cEce6Vw7lEbEPHhmr//OD7NIoWn3fFMy89vQpkIIg9AYR9gGE0Xxx5Wy132dR52Kk+WWI4Aw+eiNbXn2wcQtbVLLGdXPmItsU8YXYmHw74IpT521BRF0Q+g8RdkEQBMuwcrqjIAjCcEaEXRAEwTJE2AVBECxDhF0QBMEyrBD2/vZj5wKkkprFKXPbrUCZcmnDrn6EUxy9fXLmS4rXuiAIg4oVwt5bP3bjvpjrYiOveyP3Dfn2kx/FaNSe69sfynGQ0QLuLi7yr2oNWDUaWuTC7/6YDkW9KrY+ZYpj4zMtiFUuynifIAgDhxXTHUePHo21a9cqW4FNmzZh69at+kxmKM50ZDza+sec3RYZzU94cI5aRdrl3OdFWfXedmf/LERSFOHlxdNR/FE+fuu03p2N2PrHc17FmTa3PAH7qkB7iElZ+H2ZzwmCMLBYlWPPx4+dKRaKOm14vaJOcTZRef+lYiiQ7+efnhhfjLtv7sZn+RTRWFGB0vgX2Jki6u7vM4JPf4YFmDUpglhXgACrvkLcFp23goUex0c/rmdMmT4SBGEwsfLjaTY/dop3SfVTuC4yKuEXY1IrynK3+VV8G+9Rx1eS2injEDl0DM/r44wwnULxrnbENGG366ZR5r040Ym6Xd/0dLGl90sH2gNWi9KeNx7itkhb34xOjFI0QxCuGFYKezY/dq94n+s+qux3/WmV/mUVnnKENde0RO1D9FmvwtNTnbeFkntyq2m6ulbZ6zY74TWX9bt2u246pvGZZSqVEmi3m8EDndcHRvLa4TGjEyOLbMSOigWvIFwBrBP2XP3YC5mGd3Zh5hsdiKMbbynP9Vxz7CtRXhpmqRtst0sP9GABztRXFodHh7ryssxFNQRBGDCsEfZ8/NgHn17k2MdGck/DGFT07c+vG5JiPO/FhpQZK/FYh7uzosE3FdKI9wKsqX8p97TK3JdQVRqc3hEEYeCxQtjz9WPPBHPtJv/OjfvMyfMjKj+m0oudZfVMbp6WvNy4zxJ7LJfHsnl9/fDKmqYHD+Tp3Z4x/dGBWLwM1c4AsyS6JzFjRn3krFzq5ufL93imLSavb2ldBLydrKDklsArQ3ngfHhnEFg0DbHm3Mv9CYLQv4i7YyGiLHoj2L7u87wi9oxe6P0NP9ZWxbDBUzKPmHntMs1REK4cVn48HbroxUjzy3B8W+6iTjFlxF2NpsERdbK6Fs2xaaj2rTgVUReEK49E7IIgCJYhEbsgCIJliLALgiBYhgi7IAiCZYiwC4IgWIYVwi5+7APIAHm494Z0n3cu/PLbEguCYIWwX2k/dmL64mKlQuDZJ10P9w8Xl6BWt2Um6QBpzMOSBFkLZBBVDgbNeaxUzQGK+pJoi28q5So0txWjOtBLXhCGL+LH7kTk/eHHTmEvrpyNr/ftRs8Xbbr1ykATsadv6cDMN3NducqCGksRbc1jcRPFexFQ71ugRIwIz17YT14xXAxVviekPw4w4Z7xgjAcsSrHfiX82I3VAG0EaCcwpnxWWkQfFOmbdM+tj8xNvDWkvgX0wl9GUYT77yzKz45g7n2YlGbdm4zgg54h0DxMWwcvqYwApTU6+vdE9Tqt438rcFMsK53BxZzzvgk4z1ENNIcOErQ+cAZbqdYkCAms/Hg6mH7sHBQOb3kdxz/aiu8uXcTJ9p0pNsD8LQ4g7PPItt9hxM1jVJvh2htuxNGWN9V9I8eM7XtZvXyKcxihXToNERhfGDefntnDPcQCWFkHr0dbPI629cY6WEfSJsJXbewXmHS/O2Cwr4jztoONPMf7k0I978XZKO3ckyEa34SuWATRO/WhIAh2Cnuh+LEzmh95y/iEmZgxEPNypusQLvR0q/RN559+7Smpl5+Hu/KX0XYEERTjCe4/WaxPhrB5GWq0eMfb1mshdtMxGT3cQyyAXYItfVmYI5IoAOJE9YnqS+yLHvKmlN8mLK9OlvUL/n0vmZ5FEIYn1gl7Ifqxm8HDbBxY+p2vDuHhdbvw0Sng4DbXwz23HHuG0nhhoqlSNyF+7IGFO9x+klG8syVy8+EVnHISbT4LwqyKBWF4Yo2wF6IfO9M0zOH3LsXSmxx7EYrzrZGaUVjDPdyREG/nOb2zUmgdrHdTCUmXZKjglAtZS/QJwjDECmG/0n7shCmU8yePp308PfbhFlw8+436uMp27z39TsU43NGr4hxhwhrs4Y7NRxFLpFUq0O79sLl6Dzp9NVdVemXjbkSr3TSM2sxgkNFDfhN27k/m4tNY0YDq6O7QgtqCMFwRd0drKMLLi6ej+KNcy+i5cEbKQmwsXKtdfnRdGkWrfzpjWLsgCHZ+PB1uuIuRpmPG15/nLOoU9NSPmAXK5mWobytGlX/FqYi6IIQiEbsgCIJlSMQuCIJgGSLsgiAIliHCLgiCYBki7IIgCJZhhbCLH3uOaG+Y/vZWr6tP7dM19cpnYZUgCP2JFcI+WH7suWAWMqU6NfaFYjTS98XZtj+U4yBjzL3U5vdM762vClfC+n3aXVGviq1PsfttfKYFscpFadcKgjA4iB+7I8T5+LFng8I+0emXVgJ9NxbrzaIjCvBsxNYnjbT6BePO6PFfz7S4qeAXPgmCxViVYx9IP3YTiYf5p5v7jB1BKr3xfXHIx4LXsKICpXG/KZb7+4zgU5+BBTacKHyFJ8L3+r5of3W10drXu/TfEfqFGRY3NXZ1B9r9CoIw8Fj58XQg/dh5T3dbS4p/Or1fbrztTuXJno+XezZqp4xDJFfvFyPC1Y6Y+rxaMnurR1BZzVWcD2D2+t2IRye6Je3YHwtcaDdGZe0b61B3kKzmW1/Gkn0JgjCoWCnsA+nHTqOvpGe6yw3jS5TR19njh3WLn/y81Vnajjn1p6c6bwsl96j9xgp9MgxV5OIBNHfS29zY47rpmHBvdbo38nq9NN9jyFVXXpZsV9a+jo7vMM/v2ukmjwPIaO4lCMJAYp2wF6Ife740vLMLM9/oQBzdeIu+6s6WW459JcpLwz6OBnibK2fH3WjWHz7nTSjWUbnv2jT/9eBiGl7UwJCxQIYgCAOFNcJ+Jf3YL545jWtGjMS1I4twU+mU/smxj43knoYxKKEOKzoR4K3ui6oZ0acX3HCeXZXOy4O5L6GqNMzjXRCEgcYKYR8MP/ZMnNjzAS5dOK+82kfddW+/5Nifvas4v4LUJGP6I91bnVF1Mm/ujdJdH/TKpczTz0aseTfiKZ7tq9DeWYbywPnwC7Bm0TTnHnFeFIQrhbg7FiKsXzo/gu3rPs8rYuec8vJ2t2bpgMOPq1UxbPBMfyRmXrtMcxSEK4eVH0+HLnox0vwyHN+Wu6hTTDkjphpNgyPqZHUtmmPTUO1bcSqiLghXHonYBUEQLEMidkEQBKsA/j8pjs6Jxc4dzgAAAABJRU5ErkJggg==;" vertex="1" parent="12">
                    <mxGeometry x="17.41999999999996" y="270" width="225.16" height="118" as="geometry"/>
                </mxCell>
            </root>
        </mxGraphModel>
    </diagram>
</mxfile>